<svg id="backlogsvg" xmlns="http://www.w3.org/2000/svg" style="transform: none; transform-origin: 50% 50%;" width="400" height="400" viewBox="0 0 4000 4000"><g id="l6iZpYfBjxDRUJYeTewqdUR" fill="rgb(66,206,159)" style="transform: none;"><g><path id="pQDUZyD7b" d="M698 3960 c-274 -46 -512 -236 -614 -488 -63 -156 -59 -60 -59 -1472 l0 -1285 28 -90 c72 -228 218 -401 422 -500 179 -86 64 -80 1515 -80 l1285 0 79 23 c309 89 537 344 585 652 9 55 11 407 9 1335 l-3 1260 -33 95 c-43 124 -98 215 -185 306 -84 89 -182 156 -285 196 -153 60 -111 58 -1460 57 -681 -1 -1258 -5 -1284 -9z m1080 -1050 c160 -17 294 -55 422 -117 105 -52 123 -65 215 -157 109 -110 152 -174 193 -288 35 -99 37 -240 5 -343 -74 -234 -289 -434 -578 -538 -63 -22 -236 -64 -337 -82 l-38 -6 0 -154 0 -155 -165 0 -165 0 0 825 c0 556 4 840 11 875 13 61 49 106 104 131 47 22 178 25 333 9z"></path><path id="pGv2hjeEw" d="M1652 2154 l3 -439 49 -3 c97 -6 290 52 406 123 69 42 151 126 182 185 18 35 24 65 26 138 4 88 2 97 -27 156 -38 77 -125 162 -207 204 -80 40 -186 63 -322 69 l-112 6 2 -439z"></path></g></g><g id="l3e0I1oPFBLkZ6RvpIc91TU" fill="rgb(255,255,255)" style="transform: none;"><g><path id="pbkpdj3Ca" d="M1415 2931 c-55 -25 -91 -70 -104 -131 -7 -35 -11 -327 -11 -905 l0 -855 195 0 195 0 0 155 0 154 38 6 c439 75 693 220 855 487 63 105 82 182 82 333 -1 115 -4 139 -27 203 -41 114 -84 178 -193 288 -92 92 -110 105 -215 157 -182 89 -377 127 -647 127 -103 0 -136 -4 -168 -19z m505 -397 c153 -34 282 -129 341 -250 27 -55 31 -71 27 -126 -9 -145 -132 -274 -338 -356 -87 -35 -230 -68 -254 -59 -14 6 -16 49 -16 413 l0 407 83 -6 c45 -3 116 -13 157 -23z"></path></g></g></svg>